<?xml version="1.0" encoding="UTF-8"?>
<!DOCTYPE svg PUBLIC "-//W3C//DTD SVG 1.1//EN" "http://www.w3.org/Graphics/SVG/1.1/DTD/svg11.dtd">
<!-- Creator: CorelDRAW 2020 (64-Bit) -->
<svg xmlns="http://www.w3.org/2000/svg" xml:space="preserve" width="56.6204mm" height="56.6204mm" version="1.1" style="shape-rendering:geometricPrecision; text-rendering:geometricPrecision; image-rendering:optimizeQuality; fill-rule:evenodd; clip-rule:evenodd"
viewBox="0 0 3627.63 3627.63"
 xmlns:xlink="http://www.w3.org/1999/xlink"
 xmlns:xodm="http://www.corel.com/coreldraw/odm/2003">
 <defs>
  <style type="text/css">
   <![CDATA[
    .fil1 {fill:#FEFEFE}
    .fil0 {fill:#2B2A29}
   ]]>
  </style>
 </defs>
 <g id="Layer_x0020_1">
  <metadata id="CorelCorpID_0Corel-Layer"/>
  <circle class="fil0" cx="1813.82" cy="1813.82" r="1813.82"/>
  <g id="_1838690167168">
   <g id="XMLID_52_">
    <g id="XMLID_53_">
     <path id="XMLID_54_" class="fil1" d="M1520.1 1822.42l0 1091.27c0,14.74 12.29,29.49 29.5,29.49l405.54 0c14.75,0 29.49,-12.29 29.49,-29.49l0 -1110.94 292.48 0c14.75,0 27.04,-12.29 29.5,-27.04l24.58 -331.81c2.45,-17.2 -12.29,-31.95 -29.5,-31.95l-319.51 0 0 -235.95c0,-56.53 44.24,-100.77 100.77,-100.77l226.12 -0.01c14.75,0 29.5,-12.29 29.5,-29.49l-0.01 -331.81c0,-14.74 -12.29,-29.49 -29.49,-29.49l-383.42 0c-223.66,0 -405.54,181.88 -405.54,405.54l0 321.97 -201.54 0c-14.74,0 -29.49,12.29 -29.49,29.5l0 334.26c0,14.75 12.29,29.5 29.49,29.5l201.54 -0.01 0 17.21z"/>
    </g>
   </g>
  </g>
 </g>
</svg>
