<?xml version="1.0" encoding="UTF-8"?>
<!DOCTYPE svg PUBLIC "-//W3C//DTD SVG 1.1//EN" "http://www.w3.org/Graphics/SVG/1.1/DTD/svg11.dtd">
<!-- Creator: CorelDRAW 2020 (64-Bit) -->
<svg xmlns="http://www.w3.org/2000/svg" xml:space="preserve" width="56.6204mm" height="56.6204mm" version="1.1" style="shape-rendering:geometricPrecision; text-rendering:geometricPrecision; image-rendering:optimizeQuality; fill-rule:evenodd; clip-rule:evenodd"
viewBox="0 0 1505 1505"
 xmlns:xlink="http://www.w3.org/1999/xlink"
 xmlns:xodm="http://www.corel.com/coreldraw/odm/2003">
 <defs>
  <style type="text/css">
   <![CDATA[
    .fil0 {fill:#2B2A29}
    .fil1 {fill:#FEFEFE;fill-rule:nonzero}
   ]]>
  </style>
 </defs>
 <g id="Layer_x0020_1">
  <metadata id="CorelCorpID_0Corel-Layer"/>
  <circle class="fil0" cx="752.5" cy="752.5" r="752.5"/>
  <g id="_1838694264512">
   <g id="XMLID_12_">
    <g id="XMLID_15_">
     <g id="XMLID_16_">
      <g id="XMLID_17_">
       <path id="XMLID_18_" class="fil1" d="M1164.45 790.71l0 290.61c0,7.14 -6.12,13.26 -13.26,13.26l-149.89 0c-7.14,0 -13.26,-6.12 -13.26,-13.26l0 -270.22c0,-71.38 -25.49,-120.32 -89.73,-120.32 -48.95,0 -77.5,32.63 -90.75,64.24 -5.1,11.22 -6.12,27.53 -6.12,42.83l0 283.47c0,7.14 -6.12,13.26 -13.26,13.26l-148.88 0c-7.14,0 -13.26,-6.12 -13.26,-13.26 0,-72.4 2.04,-422.15 0,-503.72 0,-7.14 6.12,-13.26 13.26,-13.26l149.89 0c7.14,0 13.26,6.12 13.26,13.26l0 62.2c0,1.02 -1.02,1.02 -1.02,2.04l1.02 0 0 -2.04c23.45,-35.69 65.26,-87.69 159.07,-87.69 116.24,-0 202.92,76.47 202.92,238.61l0 0zm-799.43 304.88l149.89 0c7.14,0 13.26,-6.12 13.26,-13.26l0 -504.74c0,-7.14 -6.12,-13.26 -13.26,-13.26l-149.89 0c-7.14,0 -13.26,6.12 -13.26,13.26l0 504.74c1.02,7.14 6.12,13.26 13.26,13.26z"/>
      </g>
     </g>
    </g>
    <g id="XMLID_13_">
     <circle id="XMLID_14_" class="fil1" cx="435.38" cy="403.23" r="94.83"/>
    </g>
   </g>
  </g>
 </g>
</svg>
