<?xml version="1.0" encoding="UTF-8"?>
<!DOCTYPE svg PUBLIC "-//W3C//DTD SVG 1.1//EN" "http://www.w3.org/Graphics/SVG/1.1/DTD/svg11.dtd">
<!-- Creator: CorelDRAW 2020 (64-Bit) -->
<svg xmlns="http://www.w3.org/2000/svg" xml:space="preserve" width="56.6204mm" height="56.6204mm" version="1.1" style="shape-rendering:geometricPrecision; text-rendering:geometricPrecision; image-rendering:optimizeQuality; fill-rule:evenodd; clip-rule:evenodd"
viewBox="0 0 1505 1505"
 xmlns:xlink="http://www.w3.org/1999/xlink"
 xmlns:xodm="http://www.corel.com/coreldraw/odm/2003">
 <defs>
  <style type="text/css">
   <![CDATA[
    .fil0 {fill:#2B2A29}
    .fil1 {fill:#FEFEFE;fill-rule:nonzero}
   ]]>
  </style>
 </defs>
 <g id="Layer_x0020_1">
  <metadata id="CorelCorpID_0Corel-Layer"/>
  <circle class="fil0" cx="752.5" cy="752.5" r="752.5"/>
  <g id="_1838752143360">
   <g id="XMLID_41_">
    <path id="XMLID_42_" class="fil1" d="M1008.95 444.05c-31.61,0 -57.1,25.49 -57.1,57.1 0,31.61 25.49,57.1 57.1,57.1 31.61,0 57.1,-25.49 57.1,-57.1 0,-31.61 -25.49,-57.1 -57.1,-57.1zm-254.92 73.42c-132.56,0 -240.64,108.08 -240.64,240.64 0,132.56 108.09,240.64 240.64,240.64 132.56,0 240.64,-108.09 240.64,-240.64 0,-132.56 -108.08,-240.64 -240.64,-240.64zm0 395.64c-85.65,0 -153.97,-69.34 -153.97,-153.97 0,-85.65 69.34,-153.97 153.97,-153.97 85.65,0 153.97,69.34 153.97,153.97 0,84.64 -69.34,153.97 -153.97,153.97zm486.39 -354.85c0,-162.13 -131.54,-293.67 -293.67,-293.67l-388.5 0c-162.13,0 -293.67,131.54 -293.67,293.67l0 388.5c0,162.13 131.54,293.67 293.67,293.67l387.48 0c162.13,0 293.67,-131.54 293.67,-293.67l0 -388.5 1.02 0zm-92.79 387.48c0,111.14 -90.75,201.9 -201.9,201.9l-387.48 0c-111.14,0 -201.9,-90.75 -201.9,-201.9l0 -387.48c0,-112.16 89.73,-201.9 201.9,-201.9l387.48 0c111.14,0 201.9,90.75 201.9,201.9l0 387.48z"/>
   </g>
  </g>
 </g>
</svg>
