<?xml version="1.0" encoding="UTF-8"?>
<!DOCTYPE svg PUBLIC "-//W3C//DTD SVG 1.1//EN" "http://www.w3.org/Graphics/SVG/1.1/DTD/svg11.dtd">
<!-- Creator: CorelDRAW 2020 (64-Bit) -->
<svg xmlns="http://www.w3.org/2000/svg" xml:space="preserve" width="56.6204mm" height="56.6204mm" version="1.1" style="shape-rendering:geometricPrecision; text-rendering:geometricPrecision; image-rendering:optimizeQuality; fill-rule:evenodd; clip-rule:evenodd"
viewBox="0 0 3627.63 3627.63"
 xmlns:xlink="http://www.w3.org/1999/xlink"
 xmlns:xodm="http://www.corel.com/coreldraw/odm/2003">
 <defs>
  <style type="text/css">
   <![CDATA[
    .fil2 {fill:#FEFEFE}
    .fil0 {fill:#2B2A29}
    .fil1 {fill:#FEFEFE;fill-rule:nonzero}
   ]]>
  </style>
 </defs>
 <g id="Layer_x0020_1">
  <metadata id="CorelCorpID_0Corel-Layer"/>
  <circle class="fil0" cx="1813.82" cy="1813.82" r="1813.82"/>
  <g id="_1838690222704">
   <g id="XMLID_55_">
    <g id="XMLID_56_">
     <g id="XMLID_65_">
      <path id="XMLID_66_" class="fil1" d="M2902.28 1129.5c-68.82,31.95 -147.47,51.61 -221.2,63.9 36.87,-4.92 88.48,-71.28 110.6,-95.85 31.95,-39.33 58.98,-86.03 73.73,-135.19 2.46,-4.91 2.46,-9.83 0,-12.29 -4.91,-2.45 -7.37,0 -12.29,0 -83.57,44.25 -169.59,78.65 -262.99,100.77 -7.37,2.45 -12.29,0 -17.21,-4.92 -7.37,-9.83 -14.74,-17.2 -22.12,-24.58 -39.33,-31.95 -81.11,-58.99 -127.81,-78.65 -61.44,-24.58 -130.27,-36.87 -196.62,-31.95 -63.9,4.92 -127.81,22.12 -184.34,51.61 -56.53,29.5 -108.14,71.28 -149.92,122.89 -41.79,51.61 -73.74,113.06 -88.49,179.43 -14.74,63.9 -14.74,125.35 -4.91,189.25 2.46,9.83 0,12.29 -9.83,9.83 -363.76,-51.61 -663.62,-179.43 -906.94,-457.16 -9.83,-12.29 -17.2,-12.29 -24.58,0 -105.69,159.76 -54.07,415.37 78.65,543.18 17.2,17.21 36.87,34.41 56.53,49.16 -7.37,2.45 -95.85,-7.37 -174.51,-49.16 -9.83,-7.37 -14.74,-2.45 -17.2,9.83 0,17.2 0,31.95 2.46,51.61 19.66,162.22 132.72,312.15 285.11,368.67 17.2,7.37 39.32,14.74 58.98,17.2 -34.41,7.37 -71.28,12.29 -172.05,4.91 -12.29,-2.45 -17.2,4.92 -12.29,14.75 73.73,206.46 235.95,267.91 358.84,302.31 17.2,2.46 31.95,2.46 49.15,7.37 0,2.46 -2.45,2.46 -2.45,2.46 -39.33,61.45 -179.43,108.14 -245.78,130.27 -117.98,41.78 -248.24,58.99 -373.59,46.69 -19.66,-2.45 -24.58,-2.45 -29.49,0 -4.91,2.46 0,7.37 4.91,12.29 24.58,17.2 51.61,31.95 78.65,46.69 78.65,41.79 162.22,76.2 248.24,100.77 447.32,122.89 953.63,31.95 1290.36,-302.32 262.99,-260.53 356.39,-621.83 356.39,-985.59 0,-14.75 17.2,-22.12 27.04,-29.49 68.82,-51.62 122.89,-113.06 174.51,-181.88 12.29,-14.75 9.83,-29.5 9.83,-34.41 0,0 0,-2.46 0,-2.46 0,-4.91 2.46,-4.91 -7.37,0.01z"/>
     </g>
     <g id="XMLID_63_">
      <path id="XMLID_64_" class="fil2" d="M1368.6 2712.34c184.33,0 7.37,0 0,0 24.58,0 -2.46,0 0,0z"/>
     </g>
     <g id="XMLID_61_">
      <path id="XMLID_62_" class="fil2" d="M1368.6 2712.34c-2.46,0 -36.87,0 0,0 0,0 -7.37,0 0,0z"/>
     </g>
     <g id="XMLID_59_">
      <path id="XMLID_60_" class="fil2" d="M1442.34 2714.8c0,-4.91 39.33,0 0,0 0,-2.45 4.91,0 0,0z"/>
     </g>
     <g id="XMLID_57_">
      <path id="XMLID_58_" class="fil2" d="M2219.01 915.67c-2.46,2.45 -4.91,2.45 -9.83,0 2.45,0 7.37,0 9.83,0z"/>
     </g>
    </g>
   </g>
  </g>
 </g>
</svg>
